<?xml version="1.0" encoding="UTF-8" standalone="no"?>
<!DOCTYPE svg PUBLIC "-//W3C//DTD SVG 1.1//EN" "http://www.w3.org/Graphics/SVG/1.1/DTD/svg11.dtd">
<svg width="100%" height="100%" viewBox="0 0 1200 1200" version="1.1" xmlns="http://www.w3.org/2000/svg" xmlns:xlink="http://www.w3.org/1999/xlink" xml:space="preserve" xmlns:serif="http://www.serif.com/" style="fill-rule:evenodd;clip-rule:evenodd;stroke-linejoin:round;stroke-miterlimit:2;">
    <g id="Layer-1" serif:id="Layer 1" transform="matrix(1.19036,0,0,1.19036,2.20448,-8.98765)">
        <g transform="matrix(1.25451,-0.867232,-0.867232,-1.25451,232.577,246.27)">
            <path d="M-11.691,-3.648C-0.334,-3.653 8.87,5.55 8.872,16.906C8.873,28.261 -0.336,37.467 -11.691,37.473C-23.041,37.473 -32.253,28.274 -32.254,16.919C-32.25,5.572 -23.048,-3.643 -11.691,-3.648" style="fill-rule:nonzero;"/>
        </g>
        <g transform="matrix(-0.321823,-1.49074,-1.49074,0.321823,968.561,430.922)">
            <path d="M-12.378,-15.327C-5.388,-15.323 0.283,-9.662 0.281,-2.669C0.279,4.332 -5.381,9.995 -12.378,10.002C-19.369,9.998 -25.033,4.327 -25.038,-2.665C-25.036,-9.657 -19.369,-15.331 -12.378,-15.327" style="fill-rule:nonzero;"/>
        </g>
        <g transform="matrix(-1.49076,0.32175,0.32175,1.49076,180.485,837.716)">
            <path d="M2.664,-24.904C9.613,-24.9 15.252,-19.269 15.25,-12.314C15.254,-5.362 9.612,0.278 2.664,0.275C-4.294,0.273 -9.933,-5.359 -9.93,-12.314C-9.927,-19.267 -4.291,-24.898 2.664,-24.904" style="fill-rule:nonzero;"/>
        </g>
        <g transform="matrix(1.49082,-0.321481,-0.321481,-1.49082,302.14,93.3055)">
            <path d="M-3.035,-0.323C4.924,-0.325 11.372,6.126 11.363,14.075C11.361,22.022 4.915,28.468 -3.035,28.467C-10.993,28.469 -17.439,22.027 -17.431,14.07C-17.43,6.122 -10.984,-0.323 -3.035,-0.323" style="fill-rule:nonzero;"/>
        </g>
        <g transform="matrix(-1.25467,0.866998,0.866998,1.25467,500.683,979.649)">
            <path d="M9.947,-31.89C19.61,-31.894 27.445,-24.062 27.445,-14.4C27.445,-4.738 19.61,3.099 9.947,3.102C0.279,3.098 -7.557,-4.732 -7.557,-14.395C-7.557,-24.058 0.283,-31.887 9.947,-31.89" style="fill-rule:nonzero;"/>
        </g>
        <g transform="matrix(1.30746,-0.785133,-0.785133,-1.30746,595.473,138.002)">
            <path d="M-13.83,-3.832C1.011,-3.833 13.035,8.192 13.034,23.018C13.029,37.857 1.003,49.891 -13.83,49.886C-28.667,49.895 -40.692,37.869 -40.694,23.036C-40.691,8.198 -28.659,-3.829 -13.83,-3.832" style="fill-rule:nonzero;"/>
        </g>
        <g transform="matrix(-1.25751,-0.86287,-0.86287,1.25751,7.30718,518.773)">
            <path d="M-15.319,-49.403C-0.364,-49.395 11.762,-37.271 11.76,-22.317C11.759,-7.362 -0.364,4.758 -15.319,4.751C-30.276,4.743 -42.402,-7.381 -42.4,-22.335C-42.398,-37.29 -30.275,-49.41 -15.319,-49.403" style="fill-rule:nonzero;"/>
        </g>
        <g transform="matrix(-1.25457,0.867146,0.867146,1.25457,896.611,349.053)">
            <path d="M13.011,-41.708C25.652,-41.713 35.897,-31.473 35.897,-18.832C35.897,-6.192 25.653,4.054 13.011,4.058C0.368,4.063 -9.875,-6.177 -9.876,-18.816C-9.876,-31.458 0.369,-41.703 13.011,-41.708" style="fill-rule:nonzero;"/>
        </g>
        <g transform="matrix(-1.49072,0.321901,0.321901,1.49072,936.713,598.713)">
            <path d="M3.594,-33.667C12.995,-33.666 20.622,-26.046 20.62,-16.648C20.628,-7.242 13.004,0.374 3.594,0.383C-5.807,0.383 -13.433,-7.236 -13.431,-16.634C-13.431,-26.042 -5.806,-33.659 3.594,-33.667" style="fill-rule:nonzero;"/>
        </g>
        <g transform="matrix(-1.25446,0.867294,0.867294,1.25446,778.127,923.573)">
            <path d="M16.119,-51.684C31.782,-51.69 44.484,-39.002 44.484,-23.341C44.484,-7.68 31.79,5.024 16.119,5.035C0.457,5.04 -12.238,-7.653 -12.238,-23.313C-12.243,-38.982 0.457,-51.679 16.119,-51.684" style="fill-rule:nonzero;"/>
        </g>
        <g transform="matrix(1.52508,0,0,1.52508,591.839,387.332)">
            <path d="M0,219.766C-22.532,208.723 -36.21,183.493 -30.364,158.58C-25.997,139.941 15.654,63.836 17.219,52.14C18.81,40.212 12.439,39.189 8.459,38.992C3.326,38.725 -0.723,41.226 -5.76,48.823C-10.342,55.749 -62.146,159.465 -66.642,167.938C-74.68,183.089 -84.798,186.742 -94.96,186.2C-109.78,185.426 -116.563,177.486 -114.423,163.212C-113.159,154.816 -80.311,80.619 -78.609,69.043C-77.56,61.885 -78.979,54.288 -86.079,50.645C-93.189,47.001 -101.57,52.587 -104.081,56.815C-107.545,62.65 -154.123,184.275 -159.083,193.281C-167.662,208.878 -176.697,213.836 -190.28,214.481C-222.406,216.002 -246.228,189.594 -235.722,157.197C-231.037,142.768 -200.098,33.371 -184.426,5.529C-173.895,-13.188 -144.649,-27.402 -124.369,-18.628C-113.864,-14.082 -99.31,-6.812 -95.011,-4.913C-85.099,-0.521 -74.465,-12.423 -70.278,-16.067C-66.083,-19.711 -62.077,-23.535 -56.971,-25.727C-51.873,-27.909 -43.853,-28.82 -37.654,-27.909C-31.464,-26.999 -27.768,-24.661 -25.446,-22.804C-20.891,-19.17 -18.045,-16.299 -13.738,-12.2C-7.256,-6.039 -2.588,-9.768 0.661,-11.651C6.292,-14.924 10.694,-17.58 27.354,-17.279C44.505,-16.978 64.217,-10.851 68.31,18.393C72.865,50.876 15.121,134.552 19.161,173.378C22.016,200.741 68.267,181.482 72.178,206.454C77.25,238.87 14.373,226.804 0,219.766M169.222,27.402C160.212,14.623 147.464,6.236 133.554,2.094C135.591,-24.555 128.937,-52.02 112.552,-75.721C80.615,-121.92 22.304,-138.867 -28.142,-120.58C-73.214,-149.445 -132.833,-150.657 -179.625,-118.337C-203.309,-101.975 -220.184,-79.477 -229.692,-54.469C-243.464,-52.605 -257.046,-47.998 -269.271,-39.551C-309.676,-11.639 -320.335,42.776 -294.7,84.034C-329.491,115.89 -337.512,168.929 -311.077,209.904C-295.396,234.198 -270.767,248.832 -244.315,253.181C-243.825,273.006 -237.876,292.917 -225.754,310.449C-192.605,358.409 -126.832,370.423 -78.862,337.286C-77.031,336.014 -75.613,334.408 -73.885,333.049C-47.149,356.906 -7.011,360.841 23.773,339.572C40.202,328.229 50.707,311.72 55.289,293.786C79.377,294.67 103.904,288.552 125.258,273.796C176.486,238.409 190.232,169.213 157.462,117.007C183.768,94.827 189.433,56.036 169.222,27.402" style="fill-rule:nonzero;"/>
        </g>
    </g>
</svg>
