<svg width="300" height="300" viewBox="0 0 300 300" xmlns="http://www.w3.org/2000/svg" xmlns:xlink="http://www.w3.org/1999/xlink">
    <g id="apricot">
        <g id="Group">
            <path id="Path" fill="#000000" stroke="none" d="M 150.016663 73.850006 C 126.866646 84.649994 108.766655 104.5 100.316658 128.900009 C 100.116661 125.950027 100.066658 123 100.066658 120 C 100.066658 99.650009 106.46666 80.800003 117.416649 65.299988 C 128.96666 66.149994 139.96666 69.149979 150.016663 73.850006 Z"/>
            <path id="path1" fill="#ffa01c" stroke="none" d="M 190.066666 65 C 175.756683 65 162.236649 68.255005 150.066666 73.920013 C 137.896667 68.255005 124.376648 65 110.06665 65 C 57.601658 65 15.066667 107.535004 15.066667 160 C 15.066667 234.619995 57.556648 295 110.06665 295 C 124.366676 295 137.911667 290.494995 150.066666 282.470001 C 162.221664 290.494995 175.766663 295 190.066666 295 C 242.57666 295 285.06665 234.619995 285.06665 160 C 285.06665 107.535004 242.531662 65 190.066666 65 Z"/>
            <path id="path2" fill="#f88c00" stroke="none" d="M 150.066666 282.450012 C 137.916656 290.5 124.366676 295 110.06665 295 C 57.566658 295 15.066667 234.600006 15.066667 160 C 15.066667 157.199982 15.166664 154.449997 15.466658 151.75 C 19.616661 220.849991 60.36665 275 110.06665 275 C 118.76667 275 127.216667 273.350006 135.216675 270.200012 C 139.816666 274.899994 144.816681 279.049988 150.066666 282.450012 Z M 257.916656 93.549988 C 265.666656 107.300003 270.066681 123.149994 270.066681 140 C 270.066681 214.599976 227.566666 275 175.066666 275 C 153.616653 275 133.816666 264.899994 117.916664 247.900009 C 135.366638 276.749969 161.216675 295 190.066666 295 C 242.566681 295 285.06665 234.600006 285.06665 160 C 285.06665 134.150009 274.716644 110.649963 257.916656 93.549988 Z M 117.416664 65.300018 C 106.46666 80.800003 100.066658 99.650009 100.066658 120 C 100.066658 123 100.116661 125.950027 100.316658 128.900009 C 108.76667 104.5 126.866646 84.649994 150.016663 73.849976 C 139.96666 69.149979 128.96669 66.149994 117.416664 65.300018 Z"/>
            <path id="path3" fill="#e6e6e6" stroke="none" d="M 95.58667 150 C 95.241661 153.285004 95.066658 156.624969 95.066658 160"/>
            <path id="path4" fill="#8c6239" stroke="none" d="M 210.066681 25 C 185.211655 25 160.066666 45.144989 160.066666 70.000015 L 150.066681 70.000015 C 150.066681 34.100006 174.166641 5.000061 210.066681 5.000061 L 210.066681 25 Z"/>
            <path id="path5" fill="#009245" stroke="none" d="M 210.066681 45 C 210.066681 52.750015 207.866669 59.949997 204.066635 66.049988 C 199.516632 65.350006 194.816635 65 190.06665 65 C 180.866669 65 171.916672 66.299988 163.466675 68.800003 C 165.516663 64.25 168.316666 60.150009 171.766647 56.699982 C 179.016678 49.499985 189.016663 45 200.066681 45 L 210.066681 45 Z M 60.066666 5.000061 C 60.066666 43.660004 91.406654 75 130.066666 75 L 150.066681 75 C 150.066681 36.339966 118.726677 5.000061 80.066658 5.000061 L 60.066666 5.000061 Z"/>
            <path id="path6" fill="#39b54a" stroke="none" d="M 203.866623 66 C 199.366669 65.350006 194.766647 65 190.06665 65 C 188.56665 65 187.066666 65.050018 185.566666 65.100006 C 186.616684 63.299988 188.016678 61.449997 189.766663 59.699966 C 195.616653 53.850021 202.766647 51.450027 205.666641 54.399994 C 207.916656 56.599976 207.066666 61.300003 203.866623 66 Z M 97.766663 14.449982 C 93.866661 10.550018 89.616661 7.449982 85.366661 5.200073 C 83.616653 5.049957 81.866653 5.000061 80.066658 5.000061 L 60.066666 5.000061 C 60.066666 20.5 65.116669 34.850006 73.716644 46.5 C 85.966667 56.5 100.216667 59.150009 107.21666 52.150009 C 115.016647 44.350021 110.816666 27.449982 97.766663 14.449982 Z"/>
            <path id="path7" fill="#f7c3b1" stroke="none" d="M 180.06665 99.999985 C 180.06665 89.999985 190.06665 75 215.066666 79.999985 C 240.066635 85 260.066681 115.000031 245.06665 140 C 233.561646 159.174988 230.06665 125.000031 210.066681 115.000031 C 200.066681 109.999969 180.06665 120.615021 180.06665 99.999985 Z"/>
        </g>
        <g id="g1">
            <path id="path8" fill="#28284b" stroke="none" d="M 90.616676 149.475006 C 90.251671 152.934998 90.066658 156.474991 90.066658 160 L 100.066658 160 C 100.066658 156.824982 100.231667 153.639984 100.561676 150.524994 L 90.616676 149.475006 Z"/>
            <path id="path9" fill="#28284b" stroke="none" d="M 211.566681 62.389984 C 213.856659 56.910019 215.066666 50.99501 215.066666 45 C 215.066666 42.23999 212.83168 40 210.066681 40 L 200.066681 40 C 189.371689 40 179.206696 43.915009 171.211655 50.599991 C 179.651657 38.095001 195.456665 30 210.066681 30 C 212.83168 30 215.066666 27.76004 215.066666 25 L 215.066666 5.000061 C 215.066666 2.240021 212.83168 0 210.066681 0 C 181.136688 0 157.826645 18.38504 148.96669 45.424988 C 137.46666 18.740021 110.921669 0 80.066658 0 L 60.066666 0 C 57.301655 0 55.06665 2.240021 55.06665 5.000061 C 55.06665 46.355026 88.711662 79.999985 130.066666 79.999985 L 130.411682 79.999985 C 111.481674 94.11998 97.471672 114.74501 92.286659 138.955002 L 102.061668 141.049988 C 110.886665 99.87999 147.891693 70.000015 190.06665 70.000015 C 239.691681 70.000015 280.066681 110.375 280.066681 160 C 280.066681 231.680008 239.691681 290 190.06665 290 C 163.116669 290 137.791672 272.695007 120.571663 242.52002 L 111.891678 247.474991 C 120.036659 261.744995 129.916656 273.389984 140.941666 282.070007 C 131.076675 287.310028 120.726669 290 110.066673 290 C 60.441647 290 20.066656 231.680008 20.066656 160 C 20.066656 122.844986 42.381668 89.995041 76.906654 76.304993 L 73.226654 67.010025 C 34.856659 82.220001 10.066659 118.720001 10.066659 160 C 10.066659 237.194992 54.926662 300 110.066673 300 C 124.011658 300 137.436661 296.059998 150.041687 288.38501 C 162.47168 295.945007 176.036652 300 190.06665 300 C 245.206665 300 290.066711 237.194992 290.066711 160 C 290.066711 112.244949 256.396667 72.259995 211.566681 62.389984 Z M 205.066666 10.209991 L 205.066666 20.26001 C 181.646667 22.644958 157.46167 41.38501 155.281647 66.360001 C 155.256653 66.370026 155.236679 66.380005 155.21167 66.389999 C 156.676651 35.325012 176.896698 12.61499 205.066666 10.209991 Z M 65.256653 9.999969 L 80.066658 9.999969 C 114.226669 9.999969 142.311676 36.485016 144.876678 70.000015 L 130.066666 70.000015 C 95.906654 70.000015 67.821648 43.515015 65.256653 9.999969 Z M 174.401672 61.305008 C 180.9617 54.229996 190.231674 50.000015 200.066681 50.000015 L 204.711685 50.000015 C 204.176666 53.725021 203.011673 57.320038 201.326675 60.680023 C 197.626663 60.26001 193.876678 60.000015 190.06665 60.000015 C 184.751648 60.000015 179.526657 60.480011 174.401672 61.305008 Z"/>
        </g>
    </g>
</svg>