<?xml version="1.0" encoding="UTF-8"?>
<!-- Generated by Pixelmator Pro 2.4.3 -->
<svg width="300" height="300" viewBox="0 0 300 300" xmlns="http://www.w3.org/2000/svg" xmlns:xlink="http://www.w3.org/1999/xlink">
    <g id="apricot">
        <g id="Group">
            <path id="Path" fill="#000000" stroke="none" d="M 135.910507 94.724838 C 125.338661 99.65683 117.072998 108.721664 113.214165 119.864334 C 113.122833 118.517181 113.099998 117.169998 113.099998 115.800003 C 113.099998 106.506836 116.022667 97.898666 121.023163 90.820328 C 126.297668 91.208496 131.320999 92.578491 135.910507 94.724838 Z"/>
            <path id="path1" fill="#ffa01c" stroke="none" d="M 154.199997 90.683334 C 147.665115 90.683334 141.490967 92.169785 135.933334 94.756805 C 130.375702 92.169785 124.201561 90.683334 117.666664 90.683334 C 93.707649 90.683334 74.28334 110.107651 74.28334 134.066666 C 74.28334 168.143127 93.687096 195.716675 117.666664 195.716675 C 124.197006 195.716675 130.382553 193.659378 135.933334 189.994629 C 141.484116 193.659378 147.669662 195.716675 154.199997 195.716675 C 178.179565 195.716675 197.583328 168.143127 197.583328 134.066666 C 197.583328 110.107651 178.159012 90.683334 154.199997 90.683334 Z"/>
            <path id="path2" fill="#f88c00" stroke="none" d="M 135.933334 189.985504 C 130.384842 193.661667 124.197006 195.716675 117.666664 195.716675 C 93.691666 195.716675 74.28334 168.134003 74.28334 134.066666 C 74.28334 132.787994 74.329002 131.532166 74.466003 130.299164 C 76.361168 161.854828 94.970329 186.583328 117.666664 186.583328 C 121.639671 186.583328 125.498505 185.829834 129.15184 184.391342 C 131.252502 186.537659 133.535843 188.432831 135.933334 189.985504 Z M 185.18483 103.721161 C 188.723999 110.000336 190.733337 117.238495 190.733337 124.933334 C 190.733337 159.000656 171.324997 186.583328 147.350006 186.583328 C 137.554504 186.583328 128.512512 181.970993 121.251503 174.207672 C 129.220322 187.382492 141.025177 195.716675 154.199997 195.716675 C 178.175003 195.716675 197.583328 168.134003 197.583328 134.066666 C 197.583328 122.261841 192.856827 111.530151 185.18483 103.721161 Z M 121.02317 90.820343 C 116.022667 97.898666 113.099998 106.506836 113.099998 115.800003 C 113.099998 117.169998 113.122833 118.517181 113.214165 119.864334 C 117.073006 108.721664 125.338661 99.65683 135.910507 94.724823 C 131.320999 92.578491 126.297684 91.208496 121.02317 90.820343 Z"/>
            <path id="path3" fill="#e6e6e6" stroke="none" d="M 111.054138 129.5 C 110.896584 131.000153 110.816666 132.525406 110.816666 134.066666"/>
            <path id="path4" fill="#8c6239" stroke="none" d="M 163.333344 72.416672 C 151.98288 72.416672 140.5 81.616211 140.5 92.966675 L 135.933334 92.966675 C 135.933334 76.572342 146.938995 63.283356 163.333344 63.283356 L 163.333344 72.416672 Z"/>
            <path id="path5" fill="#009245" stroke="none" d="M 163.333344 81.550003 C 163.333344 85.089172 162.328674 88.377167 160.593323 91.162827 C 158.515488 90.84317 156.369156 90.683334 154.199997 90.683334 C 149.998672 90.683334 145.911514 91.276993 142.052673 92.418671 C 142.988846 90.340836 144.267502 88.468506 145.843002 86.89299 C 149.153839 83.604996 153.720505 81.550003 158.766678 81.550003 L 163.333344 81.550003 Z M 94.833336 63.283356 C 94.833336 80.938065 109.145264 95.25 126.800003 95.25 L 135.93335 95.25 C 135.93335 77.595245 121.621407 63.283356 103.966667 63.283356 L 94.833336 63.283356 Z"/>
            <path id="path6" fill="#39b54a" stroke="none" d="M 160.501984 91.139999 C 158.447006 90.84317 156.346329 90.683334 154.199997 90.683334 C 153.514999 90.683334 152.830002 90.706177 152.145004 90.729004 C 152.624512 89.906998 153.26384 89.062164 154.063004 88.262985 C 156.734497 85.591507 159.999664 84.495514 161.32399 85.842667 C 162.351501 86.847321 161.963333 88.993668 160.501984 91.139999 Z M 112.049667 67.598831 C 110.268669 65.817841 108.327835 64.402161 106.387001 63.374695 C 105.58783 63.306152 104.788666 63.283356 103.966667 63.283356 L 94.833336 63.283356 C 94.833336 70.361664 97.139503 76.914841 101.066826 82.235001 C 106.661003 86.801666 113.168503 88.011841 116.365166 84.81517 C 119.927162 81.253174 118.009171 73.535492 112.049667 67.598831 Z"/>
            <path id="path7" fill="#f7c3b1" stroke="none" d="M 149.633331 106.666656 C 149.633331 102.099991 154.199997 95.25 165.616669 97.533325 C 177.033325 99.816666 186.166672 113.516678 179.316666 124.933334 C 174.062714 133.689911 172.46666 118.083344 163.333344 113.516678 C 158.766678 111.233322 149.633331 116.080856 149.633331 106.666656 Z"/>
        </g>
        <g id="g1">
            <path id="path8" fill="#28284b" stroke="none" d="M 108.784508 129.260254 C 108.617821 130.840317 108.533333 132.456909 108.533333 134.066666 L 113.099998 134.066666 C 113.099998 132.616745 113.175354 131.162262 113.326057 129.739746 L 108.784508 129.260254 Z"/>
            <path id="path9" fill="#28284b" stroke="none" d="M 164.018341 89.491425 C 165.064102 86.988907 165.616669 84.28772 165.616669 81.550003 C 165.616669 80.289597 164.596024 79.266663 163.333344 79.266663 L 158.766678 79.266663 C 153.882629 79.266663 149.240616 81.05452 145.589539 84.10733 C 149.443817 78.396713 156.661438 74.699997 163.333344 74.699997 C 164.596024 74.699997 165.616669 73.677078 165.616669 72.416672 L 165.616669 63.283356 C 165.616669 62.022949 164.596024 61 163.333344 61 C 150.121979 61 139.477051 69.395828 135.431015 81.74408 C 130.179337 69.557938 118.057121 61 103.966667 61 L 94.833336 61 C 93.570648 61 92.549995 62.022949 92.549995 63.283356 C 92.549995 82.168793 107.914551 97.533325 126.800003 97.533325 L 126.957558 97.533325 C 118.312859 103.981461 111.914955 113.400223 109.547134 124.456116 L 114.011055 125.412827 C 118.041138 106.611862 134.940094 92.966675 154.199997 92.966675 C 176.862091 92.966675 195.300003 111.404587 195.300003 134.066666 C 195.300003 166.800537 176.862091 193.433334 154.199997 193.433334 C 141.892838 193.433334 130.327759 185.530716 122.463951 171.750809 L 118.500092 174.01358 C 122.219635 180.530212 126.731499 185.848099 131.766251 189.811966 C 127.261238 192.20491 122.534737 193.433334 117.666672 193.433334 C 95.004578 193.433334 76.566666 166.800537 76.566666 134.066666 C 76.566666 117.099213 86.757187 102.097733 102.523598 95.845947 L 100.843063 91.601242 C 83.32077 98.547134 72 115.215469 72 134.066666 C 72 169.319046 92.486069 198 117.666672 198 C 124.034882 198 130.165634 196.200745 135.921936 192.695816 C 141.598297 196.148224 147.792969 198 154.199997 198 C 179.3806 198 199.866684 169.319046 199.866684 134.066666 C 199.866684 112.25853 184.490707 93.998734 164.018341 89.491425 Z M 161.050003 65.662567 L 161.050003 70.252075 C 150.354874 71.341202 139.310394 79.899155 138.31485 91.304398 C 138.303436 91.308975 138.294312 91.313538 138.282898 91.3181 C 138.951904 77.13176 148.185715 66.760849 161.050003 65.662567 Z M 97.20343 65.56665 L 103.966667 65.56665 C 119.566406 65.56665 132.391891 77.661484 133.563232 92.966675 L 126.800003 92.966675 C 111.200264 92.966675 98.374779 80.871857 97.20343 65.56665 Z M 147.046326 88.995956 C 150.042068 85.76503 154.27536 83.833344 158.766678 83.833344 L 160.887894 83.833344 C 160.64357 85.534424 160.111557 87.176147 159.342072 88.710541 C 157.652405 88.518738 155.939911 88.400009 154.199997 88.400009 C 151.772812 88.400009 149.386734 88.619202 147.046326 88.995956 Z"/>
        </g>
    </g>
    <text id="text1" xml:space="preserve" x="242" y="177" text-anchor="middle" font-family="Avenir Next" font-size="130" fill="#000000" letter-spacing="-16.9">/></text>
    <text id="text2" xml:space="preserve" x="37" y="177" text-anchor="middle" font-family="Avenir Next" font-size="130" fill="#000000">&lt;</text>
</svg>
