<?xml version="1.0" encoding="UTF-8" standalone="no"?><!DOCTYPE svg PUBLIC "-//W3C//DTD SVG 1.1//EN" "http://www.w3.org/Graphics/SVG/1.1/DTD/svg11.dtd"><svg width="130" height="20" version="1.1" xmlns="http://www.w3.org/2000/svg" xmlns:xlink="http://www.w3.org/1999/xlink" xml:space="preserve" xmlns:serif="http://www.serif.com/" style="fill-rule:evenodd;clip-rule:evenodd;stroke-linejoin:round;stroke-miterlimit:2;"><g><g><g><path d="M8.85,4.649c-1.261,0.588 -2.247,1.669 -2.707,2.999c-0.011,-0.161 -0.014,-0.322 -0.014,-0.485c0,-1.109 0.349,-2.136 0.945,-2.98c0.63,0.046 1.229,0.21 1.776,0.466Z" style="fill-rule:nonzero;"/><path d="M11.032,4.167c-0.779,-0 -1.516,0.177 -2.179,0.486c-0.663,-0.309 -1.399,-0.486 -2.179,-0.486c-2.858,-0 -5.175,2.317 -5.175,5.175c-0,4.065 2.315,7.354 5.175,7.354c0.779,0 1.517,-0.245 2.179,-0.682c0.662,0.437 1.4,0.682 2.179,0.682c2.861,0 5.175,-3.289 5.175,-7.354c0,-2.858 -2.317,-5.175 -5.175,-5.175Z" style="fill:#ffa01c;fill-rule:nonzero;"/><path d="M8.853,16.012c-0.662,0.439 -1.4,0.684 -2.179,0.684c-2.86,0 -5.175,-3.29 -5.175,-7.354c-0,-0.153 0.005,-0.302 0.022,-0.45c0.226,3.765 2.446,6.715 5.153,6.715c0.474,-0 0.934,-0.09 1.37,-0.262c0.251,0.256 0.523,0.482 0.809,0.667Zm5.875,-10.29c0.423,0.749 0.662,1.612 0.662,2.53c0,4.064 -2.315,7.355 -5.175,7.355c-1.168,-0 -2.247,-0.551 -3.113,-1.477c0.95,1.572 2.359,2.566 3.93,2.566c2.86,0 5.175,-3.29 5.175,-7.354c0,-1.408 -0.563,-2.688 -1.479,-3.62Zm-7.654,-1.539c-0.596,0.844 -0.945,1.871 -0.945,2.98c0,0.163 0.003,0.324 0.014,0.485c0.46,-1.33 1.446,-2.411 2.707,-2.999c-0.547,-0.256 -1.146,-0.42 -1.776,-0.466Z" style="fill:#f88c00;fill-rule:nonzero;"/><path d="M5.885,8.797c-0.019,0.179 -0.028,0.361 -0.028,0.545" style="fill:#e6e6e6;fill-rule:nonzero;"/><path d="M12.122,1.988c-1.354,-0 -2.724,1.097 -2.724,2.451l-0.545,0c0,-1.956 1.313,-3.541 3.269,-3.541l-0,1.09Z" style="fill:#8c6239;fill-rule:nonzero;"/><path d="M12.122,3.077c-0,0.422 -0.12,0.815 -0.327,1.147c-0.248,-0.038 -0.504,-0.057 -0.763,-0.057c-0.501,-0 -0.989,0.07 -1.449,0.207c0.112,-0.248 0.264,-0.472 0.452,-0.659c0.395,-0.393 0.94,-0.638 1.542,-0.638l0.545,0Zm-8.172,-2.179c0,2.106 1.708,3.813 3.814,3.813l1.089,0c0,-2.106 -1.707,-3.813 -3.813,-3.813l-1.09,0Z" style="fill:#009245;fill-rule:nonzero;"/><path d="M11.784,4.221c-0.245,-0.035 -0.496,-0.054 -0.752,-0.054c-0.082,-0 -0.163,0.002 -0.245,0.005c0.057,-0.098 0.133,-0.199 0.229,-0.294c0.319,-0.319 0.708,-0.449 0.866,-0.289c0.123,0.12 0.076,0.376 -0.098,0.632Zm-5.78,-2.808c-0.212,-0.213 -0.444,-0.381 -0.675,-0.504c-0.096,-0.008 -0.191,-0.011 -0.289,-0.011l-1.09,0c0,0.844 0.275,1.626 0.744,2.261c0.667,0.545 1.443,0.689 1.825,0.308c0.425,-0.425 0.196,-1.346 -0.515,-2.054Z" style="fill:#39b54a;fill-rule:nonzero;"/><path d="M10.487,6.073c0,-0.544 0.545,-1.362 1.907,-1.089c1.362,0.272 2.451,1.906 1.634,3.268c-0.626,1.045 -0.817,-0.817 -1.906,-1.362c-0.545,-0.272 -1.635,0.306 -1.635,-0.817Z" style="fill:#f7c3b1;fill-rule:nonzero;"/></g><g><path d="M5.615,8.769c-0.02,0.188 -0.03,0.381 -0.03,0.573l0.544,-0c0,-0.173 0.009,-0.347 0.027,-0.516l-0.541,-0.057Z" style="fill:#28284b;fill-rule:nonzero;"/><path d="M12.203,4.024c0.125,-0.298 0.191,-0.62 0.191,-0.947c0,-0.15 -0.122,-0.272 -0.272,-0.272l-0.545,-0c-0.583,-0 -1.136,0.213 -1.572,0.577c0.46,-0.681 1.321,-1.122 2.117,-1.122c0.15,0 0.272,-0.122 0.272,-0.272l0,-1.09c0,-0.15 -0.122,-0.272 -0.272,-0.272c-1.576,-0 -2.846,1.001 -3.329,2.474c-0.626,-1.453 -2.072,-2.474 -3.753,-2.474l-1.09,-0c-0.15,-0 -0.272,0.122 -0.272,0.272c-0,2.253 1.833,4.086 4.086,4.086l0.018,-0c-1.031,0.769 -1.794,1.893 -2.077,3.211l0.533,0.115c0.481,-2.243 2.497,-3.871 4.794,-3.871c2.704,0 4.903,2.2 4.903,4.903c0,3.905 -2.199,7.082 -4.903,7.082c-1.468,-0 -2.848,-0.943 -3.786,-2.587l-0.473,0.27c0.444,0.778 0.982,1.412 1.583,1.885c-0.537,0.285 -1.101,0.432 -1.682,0.432c-2.703,-0 -4.903,-3.177 -4.903,-7.082c0,-2.024 1.216,-3.814 3.097,-4.559l-0.201,-0.507c-2.09,0.829 -3.441,2.817 -3.441,5.066c0,4.205 2.444,7.627 5.448,7.627c0.76,-0 1.491,-0.215 2.178,-0.633c0.677,0.412 1.416,0.633 2.18,0.633c3.004,-0 5.448,-3.422 5.448,-7.627c-0,-2.602 -1.834,-4.78 -4.277,-5.318Zm-0.354,-2.842l0,0.547c-1.276,0.13 -2.593,1.151 -2.712,2.512c-0.001,0 -0.002,0.001 -0.004,0.001c0.08,-1.692 1.182,-2.929 2.716,-3.06Zm-7.616,-0.012l0.807,0c1.861,0 3.391,1.443 3.53,3.269l-0.806,0c-1.861,0 -3.391,-1.443 -3.531,-3.269Zm5.946,2.795c0.357,-0.385 0.862,-0.615 1.398,-0.615l0.253,-0c-0.029,0.202 -0.093,0.398 -0.184,0.581c-0.202,-0.023 -0.406,-0.037 -0.614,-0.037c-0.289,0 -0.574,0.026 -0.853,0.071Z" style="fill:#28284b;fill-rule:nonzero;"/></g></g><path d="M20.547,16.685c-0.239,0 -0.499,-0.019 -0.778,-0.057c-0.28,-0.037 -0.557,-0.118 -0.831,-0.24c-0.273,-0.122 -0.537,-0.296 -0.791,-0.52c-0.253,-0.224 -0.477,-0.52 -0.673,-0.887c-0.195,-0.367 -0.351,-0.82 -0.467,-1.359c-0.117,-0.539 -0.175,-1.182 -0.175,-1.927l-0,-5.288c-0,-0.752 0.06,-1.394 0.179,-1.927c0.12,-0.534 0.278,-0.982 0.477,-1.346c0.198,-0.365 0.423,-0.654 0.677,-0.87c0.253,-0.216 0.518,-0.38 0.795,-0.494c0.277,-0.113 0.552,-0.188 0.826,-0.223c0.274,-0.035 0.527,-0.052 0.761,-0.052c0.221,-0 0.467,0.016 0.738,0.048c0.271,0.032 0.542,0.102 0.813,0.21c0.271,0.108 0.535,0.268 0.791,0.48c0.256,0.213 0.484,0.502 0.682,0.866c0.198,0.364 0.357,0.815 0.476,1.354c0.119,0.539 0.179,1.191 0.179,1.954l0,5.288c0,0.74 -0.061,1.376 -0.183,1.909c-0.123,0.533 -0.283,0.985 -0.481,1.355c-0.198,0.37 -0.427,0.667 -0.686,0.892c-0.259,0.224 -0.525,0.399 -0.796,0.524c-0.27,0.125 -0.54,0.208 -0.808,0.249c-0.268,0.041 -0.51,0.061 -0.725,0.061Zm-0,-1.704c0.221,-0 0.415,-0.038 0.581,-0.114c0.166,-0.075 0.303,-0.207 0.411,-0.393c0.107,-0.186 0.189,-0.433 0.244,-0.739c0.056,-0.305 0.083,-0.691 0.083,-1.158l0,-6.791c0,-0.478 -0.027,-0.877 -0.083,-1.197c-0.055,-0.321 -0.137,-0.578 -0.244,-0.774c-0.108,-0.195 -0.245,-0.333 -0.411,-0.415c-0.166,-0.081 -0.36,-0.122 -0.581,-0.122c-0.228,-0 -0.426,0.041 -0.595,0.122c-0.169,0.082 -0.309,0.22 -0.419,0.415c-0.111,0.196 -0.194,0.453 -0.249,0.774c-0.056,0.32 -0.083,0.719 -0.083,1.197l-0,6.791c-0,0.467 0.027,0.853 0.083,1.158c0.055,0.306 0.138,0.553 0.249,0.739c0.11,0.186 0.25,0.318 0.419,0.393c0.169,0.076 0.367,0.114 0.595,0.114Z" style="fill-rule:nonzero;"/><path d="M26.367,1.626l2.264,-0c0.286,-0 0.599,0.013 0.94,0.039c0.341,0.027 0.681,0.088 1.022,0.184c0.341,0.096 0.67,0.243 0.988,0.441c0.318,0.198 0.599,0.468 0.843,0.809c0.245,0.341 0.442,0.767 0.59,1.28c0.149,0.513 0.223,1.136 0.223,1.871l0,0.524c0,0.798 -0.068,1.481 -0.205,2.049c-0.137,0.569 -0.319,1.046 -0.546,1.434c-0.228,0.387 -0.491,0.698 -0.791,0.931c-0.3,0.233 -0.612,0.409 -0.936,0.528c-0.323,0.12 -0.649,0.199 -0.978,0.236c-0.33,0.038 -0.64,0.057 -0.931,0.057l-0.219,0l0,4.545l-2.264,0l0,-14.928Zm2.378,8.723c0.408,-0 0.751,-0.06 1.031,-0.18c0.28,-0.119 0.503,-0.305 0.669,-0.559c0.166,-0.253 0.285,-0.58 0.358,-0.979c0.073,-0.399 0.109,-0.878 0.109,-1.438l0,-1.346c0,-0.442 -0.032,-0.825 -0.096,-1.149c-0.064,-0.323 -0.179,-0.59 -0.345,-0.8c-0.166,-0.209 -0.389,-0.365 -0.669,-0.467c-0.279,-0.102 -0.632,-0.153 -1.057,-0.153l-0.114,-0l0,7.071l0.114,-0Z" style="fill-rule:nonzero;"/><path d="M34.95,1.626l5.533,-0l-0,1.783l-3.269,-0l0,4.466l2.526,0l-0,1.783l-2.526,0l0,5.113l3.356,0l0,1.783l-5.62,0l0,-14.928Z" style="fill-rule:nonzero;"/><path d="M42.205,1.626l1.835,-0l3.618,9.99l0.053,-0c-0.018,-0.233 -0.041,-0.492 -0.07,-0.778c-0.029,-0.285 -0.055,-0.61 -0.079,-0.974c-0.023,-0.365 -0.043,-0.777 -0.061,-1.237c-0.017,-0.46 -0.026,-0.979 -0.026,-1.556l-0,-5.445l2.028,-0l-0,14.928l-1.853,0l-3.601,-9.728l-0.07,0c0.017,0.263 0.041,0.547 0.07,0.853c0.029,0.305 0.055,0.665 0.078,1.079c0.024,0.414 0.044,0.896 0.062,1.446c0.017,0.551 0.026,1.205 0.026,1.963l-0,4.387l-2.01,0l-0,-14.928Z" style="fill-rule:nonzero;"/><path d="M55.883,1.626l2.264,-0c0.285,-0 0.598,0.013 0.939,0.039c0.341,0.027 0.682,0.088 1.023,0.184c0.341,0.096 0.67,0.243 0.987,0.441c0.318,0.198 0.599,0.468 0.844,0.809c0.245,0.341 0.441,0.767 0.59,1.28c0.148,0.513 0.223,1.136 0.223,1.871l-0,0.524c-0,0.798 -0.069,1.481 -0.206,2.049c-0.137,0.569 -0.319,1.046 -0.546,1.434c-0.227,0.387 -0.491,0.698 -0.791,0.931c-0.3,0.233 -0.612,0.409 -0.935,0.528c-0.324,0.12 -0.65,0.199 -0.979,0.236c-0.329,0.038 -0.64,0.057 -0.931,0.057l-0.218,0l-0,4.545l-2.264,0l-0,-14.928Zm2.377,8.723c0.408,-0 0.752,-0.06 1.032,-0.18c0.279,-0.119 0.502,-0.305 0.668,-0.559c0.166,-0.253 0.286,-0.58 0.359,-0.979c0.072,-0.399 0.109,-0.878 0.109,-1.438l-0,-1.346c-0,-0.442 -0.032,-0.825 -0.096,-1.149c-0.064,-0.323 -0.179,-0.59 -0.346,-0.8c-0.166,-0.209 -0.388,-0.365 -0.668,-0.467c-0.28,-0.102 -0.632,-0.153 -1.058,-0.153l-0.113,-0l-0,7.071l0.113,-0Z" style="fill-rule:nonzero;"/><path d="M66.109,1.626l2.604,-0l2.762,14.928l-2.29,0l-0.41,-2.674l-2.727,-0l-0.394,2.674l-2.298,0l2.753,-14.928Zm2.403,10.549l-1.048,-7.438l-0.096,0l-1.058,7.438l2.202,0Z" style="fill-rule:nonzero;"/><path d="M74.298,3.409l-2.403,-0l-0,-1.783l7.062,-0l-0,1.783l-2.395,-0l0,13.145l-2.264,0l0,-13.145Z" style="fill-rule:nonzero;"/><path d="M81.867,3.409l-2.403,-0l-0,-1.783l7.062,-0l-0,1.783l-2.395,-0l0,13.145l-2.264,0l0,-13.145Z" style="fill-rule:nonzero;"/><path d="M88.055,1.626l5.533,-0l-0,1.783l-3.269,-0l0,4.466l2.526,0l0,1.783l-2.526,0l0,5.113l3.356,0l0,1.783l-5.62,0l0,-14.928Z" style="fill-rule:nonzero;"/><path d="M95.31,1.626l2.456,-0c0.279,-0 0.587,0.012 0.922,0.035c0.335,0.023 0.67,0.08 1.005,0.17c0.335,0.091 0.658,0.226 0.97,0.407c0.312,0.18 0.589,0.428 0.83,0.743c0.242,0.314 0.436,0.709 0.582,1.184c0.145,0.475 0.218,1.05 0.218,1.726l0,0.376c0,1.136 -0.163,2.061 -0.489,2.775c-0.327,0.714 -0.807,1.228 -1.442,1.543l2.394,5.969l-2.394,0l-1.984,-5.585l-0.848,0l-0,5.585l-2.22,0l-0,-14.928Zm2.561,7.709c0.396,-0 0.731,-0.044 1.005,-0.131c0.274,-0.088 0.495,-0.235 0.664,-0.442c0.169,-0.207 0.291,-0.48 0.367,-0.821c0.076,-0.341 0.114,-0.762 0.114,-1.263l-0,-1.18c-0,-0.385 -0.035,-0.717 -0.105,-0.997c-0.07,-0.279 -0.188,-0.509 -0.354,-0.69c-0.166,-0.181 -0.386,-0.315 -0.66,-0.402c-0.274,-0.087 -0.618,-0.131 -1.031,-0.131l-0.341,-0l-0,6.057l0.341,-0Z" style="fill-rule:nonzero;"/><path d="M103.893,13.53c-0,-0.32 0.019,-0.616 0.056,-0.887c0.038,-0.271 0.095,-0.564 0.171,-0.878l1.757,-0l-0,0.725c-0,0.402 0.024,0.757 0.074,1.066c0.049,0.309 0.131,0.57 0.245,0.783c0.113,0.212 0.265,0.372 0.454,0.48c0.189,0.108 0.421,0.162 0.695,0.162c0.431,-0 0.76,-0.118 0.988,-0.354c0.227,-0.236 0.34,-0.581 0.34,-1.036c0,-0.233 -0.016,-0.447 -0.048,-0.642c-0.032,-0.195 -0.087,-0.389 -0.166,-0.581c-0.078,-0.193 -0.185,-0.395 -0.319,-0.608c-0.134,-0.213 -0.306,-0.45 -0.515,-0.712l-2.36,-2.806c-0.42,-0.536 -0.743,-1.076 -0.97,-1.621c-0.228,-0.545 -0.341,-1.126 -0.341,-1.744c-0,-0.495 0.077,-0.949 0.231,-1.363c0.155,-0.414 0.378,-0.771 0.669,-1.071c0.291,-0.3 0.651,-0.533 1.079,-0.699c0.429,-0.166 0.914,-0.249 1.456,-0.249c0.658,-0 1.207,0.093 1.647,0.28c0.44,0.186 0.791,0.431 1.053,0.734c0.263,0.303 0.448,0.642 0.555,1.018c0.108,0.376 0.162,0.753 0.162,1.132c0,0.32 -0.025,0.616 -0.074,0.887c-0.05,0.271 -0.107,0.569 -0.171,0.896l-1.748,-0l0,-0.708c0,-0.793 -0.113,-1.4 -0.341,-1.822c-0.227,-0.423 -0.597,-0.634 -1.11,-0.634c-0.425,-0 -0.743,0.118 -0.952,0.354c-0.21,0.236 -0.315,0.552 -0.315,0.948c0,0.21 0.016,0.399 0.048,0.568c0.032,0.169 0.079,0.325 0.14,0.468c0.061,0.143 0.135,0.281 0.223,0.415c0.087,0.134 0.186,0.274 0.297,0.42l2.631,3.181c0.478,0.623 0.845,1.222 1.101,1.796c0.256,0.574 0.385,1.181 0.385,1.822c-0,0.531 -0.083,1.008 -0.249,1.434c-0.167,0.425 -0.404,0.786 -0.713,1.084c-0.309,0.297 -0.682,0.525 -1.119,0.686c-0.437,0.16 -0.929,0.24 -1.477,0.24c-0.676,-0 -1.236,-0.09 -1.682,-0.271c-0.446,-0.181 -0.801,-0.419 -1.066,-0.717c-0.265,-0.297 -0.452,-0.635 -0.56,-1.014c-0.108,-0.378 -0.161,-0.766 -0.161,-1.162Z" style="fill-rule:nonzero;"/><path d="M116.129,16.685c-0.239,0 -0.498,-0.019 -0.778,-0.057c-0.28,-0.037 -0.557,-0.118 -0.83,-0.24c-0.274,-0.122 -0.538,-0.296 -0.791,-0.52c-0.254,-0.224 -0.478,-0.52 -0.673,-0.887c-0.196,-0.367 -0.351,-0.82 -0.468,-1.359c-0.117,-0.539 -0.175,-1.182 -0.175,-1.927l0,-5.288c0,-0.752 0.06,-1.394 0.179,-1.927c0.12,-0.534 0.279,-0.982 0.477,-1.346c0.198,-0.365 0.424,-0.654 0.677,-0.87c0.254,-0.216 0.519,-0.38 0.795,-0.494c0.277,-0.113 0.553,-0.188 0.826,-0.223c0.274,-0.035 0.528,-0.052 0.761,-0.052c0.221,-0 0.467,0.016 0.738,0.048c0.271,0.032 0.542,0.102 0.813,0.21c0.271,0.108 0.535,0.268 0.791,0.48c0.257,0.213 0.484,0.502 0.682,0.866c0.198,0.364 0.357,0.815 0.476,1.354c0.12,0.539 0.179,1.191 0.179,1.954l0,5.288c0,0.74 -0.061,1.376 -0.183,1.909c-0.123,0.533 -0.283,0.985 -0.481,1.355c-0.198,0.37 -0.427,0.667 -0.686,0.892c-0.259,0.224 -0.524,0.399 -0.795,0.524c-0.271,0.125 -0.541,0.208 -0.809,0.249c-0.268,0.041 -0.51,0.061 -0.725,0.061Zm-0,-1.704c0.221,-0 0.415,-0.038 0.581,-0.114c0.166,-0.075 0.303,-0.207 0.411,-0.393c0.108,-0.186 0.189,-0.433 0.244,-0.739c0.056,-0.305 0.084,-0.691 0.084,-1.158l-0,-6.791c-0,-0.478 -0.028,-0.877 -0.084,-1.197c-0.055,-0.321 -0.136,-0.578 -0.244,-0.774c-0.108,-0.195 -0.245,-0.333 -0.411,-0.415c-0.166,-0.081 -0.36,-0.122 -0.581,-0.122c-0.227,-0 -0.426,0.041 -0.595,0.122c-0.169,0.082 -0.308,0.22 -0.419,0.415c-0.111,0.196 -0.194,0.453 -0.249,0.774c-0.056,0.32 -0.083,0.719 -0.083,1.197l-0,6.791c-0,0.467 0.027,0.853 0.083,1.158c0.055,0.306 0.138,0.553 0.249,0.739c0.111,0.186 0.25,0.318 0.419,0.393c0.169,0.076 0.368,0.114 0.595,0.114Z" style="fill-rule:nonzero;"/><path d="M121.95,1.626l1.835,-0l3.619,9.99l0.052,-0c-0.017,-0.233 -0.041,-0.492 -0.07,-0.778c-0.029,-0.285 -0.055,-0.61 -0.079,-0.974c-0.023,-0.365 -0.043,-0.777 -0.061,-1.237c-0.017,-0.46 -0.026,-0.979 -0.026,-1.556l0,-5.445l2.028,-0l-0,14.928l-1.853,0l-3.601,-9.728l-0.07,0c0.017,0.263 0.041,0.547 0.07,0.853c0.029,0.305 0.055,0.665 0.079,1.079c0.023,0.414 0.043,0.896 0.061,1.446c0.017,0.551 0.026,1.205 0.026,1.963l-0,4.387l-2.01,0l-0,-14.928Z" style="fill-rule:nonzero;"/></g></svg>